<?xml version="1.0" standalone="no"?>
<!DOCTYPE svg PUBLIC "-//W3C//DTD SVG 20010904//EN"
 "http://www.w3.org/TR/2001/REC-SVG-20010904/DTD/svg10.dtd">
<svg version="1.0" xmlns="http://www.w3.org/2000/svg"
 width="2.5rem" height="2.5rem" viewBox="0 0 512.000000 512.000000"
 preserveAspectRatio="xMidYMid meet">

<g transform="translate(0.000000,512.000000) scale(0.100000,-0.100000)"
fill="#000000" stroke="none">
<path d="M2300 4945 c-387 -42 -745 -173 -1070 -390 -69 -45 -160 -113 -202
-149 -43 -36 -81 -66 -85 -66 -4 0 -57 50 -118 110 -122 120 -142 129 -189 88
-22 -20 -41 -85 -152 -528 -69 -278 -126 -520 -126 -538 0 -39 13 -57 51 -70
23 -8 121 13 547 119 457 114 522 132 542 155 42 47 32 67 -95 196 l-118 120
50 45 c128 115 410 274 596 337 182 61 433 106 597 106 53 0 67 4 87 25 16 15
25 36 25 55 0 19 -9 40 -25 55 -21 21 -33 25 -88 25 -335 0 -737 -116 -1043
-300 -151 -92 -353 -254 -382 -308 -22 -40 -6 -71 89 -168 50 -51 87 -94 82
-96 -20 -12 -714 -180 -720 -175 -5 6 163 700 175 720 2 5 44 -30 92 -77 122
-120 114 -121 307 42 242 205 555 368 859 447 204 53 331 69 569 69 236 0 345
-12 540 -60 785 -195 1409 -801 1621 -1574 57 -205 75 -338 80 -580 5 -215 5
-215 30 -237 32 -29 66 -29 101 1 27 23 27 26 31 154 24 761 -340 1515 -953
1975 -496 372 -1098 539 -1705 472z"/>
<path d="M2825 4615 c-16 -15 -25 -36 -25 -55 0 -19 9 -40 25 -55 15 -16 36
-25 55 -25 19 0 40 9 55 25 16 15 25 36 25 55 0 19 -9 40 -25 55 -15 16 -36
25 -55 25 -19 0 -40 -9 -55 -25z"/>
<path d="M2380 3665 c-351 -56 -660 -285 -824 -612 -212 -424 -126 -943 214
-1283 344 -343 850 -426 1285 -210 337 167 561 480 615 855 25 177 -11 466
-67 527 -24 27 -84 24 -111 -5 -27 -29 -27 -44 -1 -143 29 -106 32 -344 6
-448 -46 -182 -125 -323 -257 -456 -137 -139 -280 -221 -466 -267 -98 -24
-324 -24 -424 0 -364 88 -636 359 -727 723 -24 95 -24 333 0 428 45 179 128
327 257 457 173 175 381 271 620 286 178 11 379 -34 523 -117 66 -38 83 -44
120 -41 29 2 57 38 57 75 0 43 -32 72 -142 127 -207 104 -445 140 -678 104z"/>
<path d="M3488 3438 c-8 -7 -233 -254 -498 -548 -266 -294 -488 -541 -495
-548 -9 -10 -48 31 -184 195 -95 114 -184 214 -198 221 -31 17 -66 9 -93 -20
-42 -46 -34 -61 197 -338 137 -165 225 -263 240 -266 12 -4 33 -4 46 0 24 6
1096 1182 1109 1216 9 26 -9 78 -32 90 -26 14 -73 12 -92 -2z"/>
<path d="M194 2776 c-27 -23 -28 -27 -32 -151 -14 -405 91 -843 288 -1205 240
-441 597 -783 1052 -1010 678 -337 1470 -332 2148 13 139 70 337 201 442 291
43 36 81 66 85 66 4 0 57 -50 118 -110 122 -120 142 -129 189 -87 23 19 41 84
155 542 116 466 128 522 117 549 -27 66 -19 67 -591 -75 -459 -114 -523 -132
-543 -155 -42 -47 -32 -67 96 -196 l117 -120 -50 -45 c-138 -123 -419 -280
-625 -347 -176 -57 -407 -96 -572 -96 -49 0 -63 -4 -83 -25 -16 -15 -25 -36
-25 -55 0 -19 9 -40 25 -55 21 -21 33 -25 88 -25 36 0 111 5 168 10 446 45
868 232 1194 529 62 56 79 85 70 119 -3 14 -47 67 -96 118 -50 51 -87 94 -82
96 20 12 714 180 720 175 5 -6 -163 -700 -175 -720 -2 -5 -44 30 -92 77 -122
119 -114 120 -304 -40 -255 -216 -560 -372 -886 -454 -199 -50 -323 -65 -555
-64 -238 0 -346 13 -565 70 -701 182 -1277 706 -1533 1394 -88 237 -127 455
-133 750 -5 215 -5 215 -30 238 -32 28 -66 28 -100 -2z"/>
<path d="M2185 615 c-50 -49 -15 -135 55 -135 41 0 80 39 80 80 0 41 -39 80
-80 80 -19 0 -40 -9 -55 -25z"/>
</g>
</svg>
