<?xml version="1.0" standalone="no"?>
<!DOCTYPE svg PUBLIC "-//W3C//DTD SVG 20010904//EN"
 "http://www.w3.org/TR/2001/REC-SVG-20010904/DTD/svg10.dtd">
<svg version="1.0" xmlns="http://www.w3.org/2000/svg"
 width="2.5rem" height="2.5rem" viewBox="0 0 512.000000 512.000000"
 preserveAspectRatio="xMidYMid meet">

<g transform="translate(0.000000,512.000000) scale(0.100000,-0.100000)"
fill="#000000" stroke="none">
<path d="M109 5047 c-24 -13 -57 -43 -74 -66 l-30 -43 -3 -391 c-2 -216 0
-402 3 -415 12 -50 110 -59 135 -12 6 11 10 168 10 394 0 327 2 377 16 390 14
14 91 16 695 16 l679 0 0 -242 c0 -272 4 -292 70 -336 34 -23 36 -23 317 -20
l283 3 36 36 c21 21 39 52 44 75 5 21 10 139 10 262 l0 222 678 0 c514 0 681
-3 690 -12 9 -9 12 -194 12 -770 l0 -758 -55 44 c-244 199 -542 306 -853 306
-616 0 -1147 -418 -1298 -1022 -35 -142 -44 -379 -20 -529 44 -263 164 -506
351 -706 l77 -83 -846 0 c-833 0 -846 0 -866 20 -20 20 -20 33 -20 1248 0
1222 0 1228 -20 1250 -14 14 -33 22 -55 22 -22 0 -41 -8 -55 -22 -20 -22 -20
-28 -20 -1252 0 -768 4 -1244 10 -1266 13 -49 66 -109 114 -131 39 -18 89 -19
1004 -19 l962 0 81 -41 c279 -140 609 -177 927 -103 l72 17 133 -130 c131
-129 167 -153 230 -153 27 0 89 28 115 52 l22 22 398 -395 c467 -465 452 -454
632 -454 97 0 110 2 172 32 217 102 307 350 204 558 -29 58 -60 95 -189 223
-101 100 -161 152 -175 152 -24 0 -70 -38 -73 -60 -4 -41 12 -64 149 -204 122
-124 152 -160 165 -200 73 -216 -125 -412 -344 -341 -50 16 -81 45 -444 406
l-390 389 190 190 190 190 150 -150 c165 -164 189 -179 238 -140 19 15 27 31
27 53 0 28 -20 52 -152 184 -135 135 -151 155 -140 171 45 63 52 79 52 130 0
29 -5 63 -11 75 -6 12 -69 81 -140 152 l-128 130 19 75 c92 357 17 781 -189
1070 l-46 65 -5 872 -5 871 -31 39 c-17 21 -48 48 -70 60 l-39 23 -1766 0
-1766 0 -44 -23z m2041 -352 l0 -225 -230 0 -230 0 0 225 0 225 230 0 230 0 0
-225z m816 -1130 c116 -21 180 -40 284 -84 240 -103 456 -306 580 -544 290
-559 77 -1267 -475 -1582 -272 -155 -643 -190 -950 -90 -413 135 -726 496
-800 924 -21 119 -19 309 4 428 96 489 481 865 971 948 105 18 281 18 386 0z
m1214 -1925 c0 -8 -146 -161 -325 -340 l-325 -325 -100 100 -99 99 70 38 c242
131 434 326 560 566 l33 63 93 -93 c51 -51 93 -99 93 -108z"/>
<path d="M2600 3275 c-187 -40 -337 -122 -466 -256 -174 -182 -254 -378 -254
-624 0 -144 26 -269 60 -297 31 -25 67 -22 95 7 29 28 30 43 9 126 -12 48 -15
94 -12 189 6 144 32 241 95 350 47 80 188 223 266 269 159 93 371 125 550 82
236 -56 429 -218 520 -437 68 -163 76 -364 20 -527 -43 -124 -85 -189 -188
-292 -76 -77 -104 -98 -185 -137 -124 -61 -203 -79 -337 -79 -220 1 -378 69
-545 235 -85 85 -111 94 -153 51 -36 -35 -31 -65 19 -127 94 -114 244 -215
402 -268 90 -30 113 -34 244 -38 123 -3 158 -1 234 17 282 67 494 241 616 505
51 110 70 191 77 323 14 274 -78 507 -273 694 -115 109 -219 170 -371 215
-109 33 -317 42 -423 19z"/>
<path d="M2343 2666 l-28 -24 0 -257 0 -257 28 -24 c34 -29 56 -30 91 -3 l26
20 0 264 0 264 -26 20 c-35 27 -57 26 -91 -3z"/>
<path d="M2684 2678 c-40 -19 -44 -48 -44 -293 0 -248 4 -275 47 -294 34 -16
47 -14 77 10 l26 20 0 264 0 264 -26 20 c-29 23 -48 25 -80 9z"/>
<path d="M3174 2678 c-40 -19 -44 -48 -44 -293 0 -248 4 -275 47 -294 34 -16
47 -14 77 10 l26 20 0 264 0 264 -26 20 c-29 23 -48 25 -80 9z"/>
<path d="M627 4605 c-57 -19 -173 -125 -183 -168 -6 -26 6 -41 147 -183 l153
-154 -153 -154 c-180 -181 -178 -175 -78 -271 100 -97 211 -119 321 -66 55 27
381 342 408 395 29 55 29 137 0 192 -28 54 -353 368 -410 395 -56 27 -144 33
-205 14z m148 -154 c17 -11 101 -88 188 -173 121 -117 157 -159 157 -178 0
-19 -39 -63 -167 -187 -186 -180 -213 -197 -279 -172 -21 8 -39 19 -41 25 -2
6 64 77 147 157 126 124 150 152 150 177 0 25 -24 53 -150 176 -82 81 -150
151 -150 156 0 12 60 37 90 38 14 0 39 -9 55 -19z"/>
<path d="M425 2665 l-25 -24 0 -256 0 -256 26 -26 c20 -20 31 -24 57 -19 65
13 67 20 67 303 l0 254 -25 24 c-13 14 -36 25 -50 25 -14 0 -37 -11 -50 -25z"/>
<path d="M805 2665 l-25 -24 0 -256 0 -256 26 -26 c20 -20 31 -24 57 -19 65
13 67 20 67 303 l0 254 -25 24 c-13 14 -36 25 -50 25 -14 0 -37 -11 -50 -25z"/>
<path d="M1116 2669 l-26 -20 0 -264 0 -264 26 -20 c30 -24 43 -26 77 -10 43
19 47 46 47 294 0 248 -4 275 -47 294 -34 16 -47 14 -77 -10z"/>
<path d="M4595 575 c-40 -39 -33 -74 25 -129 56 -52 77 -56 116 -23 44 38 38
80 -19 133 -53 51 -86 56 -122 19z"/>
</g>
</svg>
