<?xml version="1.0" standalone="no"?>
<!DOCTYPE svg PUBLIC "-//W3C//DTD SVG 20010904//EN"
 "http://www.w3.org/TR/2001/REC-SVG-20010904/DTD/svg10.dtd">
<svg version="1.0" xmlns="http://www.w3.org/2000/svg"
 width="2.5rem" height="2.5rem" viewBox="0 0 512.000000 512.000000"
 preserveAspectRatio="xMidYMid meet">

<g transform="translate(0.000000,512.000000) scale(0.100000,-0.100000)"
fill="#000000" stroke="none">
<path d="M2795 5111 c-99 -24 -235 -121 -370 -262 -172 -181 -227 -279 -228
-409 -3 -309 325 -481 542 -284 48 43 73 88 102 179 24 78 65 118 147 141 118
33 193 99 232 200 55 146 -6 306 -151 392 -71 43 -195 62 -274 43z m140 -172
c173 -47 183 -247 15 -296 -153 -44 -244 -135 -280 -280 -42 -167 -246 -157
-296 15 -31 105 14 191 191 367 182 182 261 224 370 194z"/>
<path d="M1525 4842 c-133 -47 -226 -155 -255 -296 -30 -144 -27 -454 5 -579
31 -120 103 -209 212 -260 139 -64 279 -43 379 57 105 104 122 242 50 385 -51
99 -50 143 1 241 35 68 38 79 38 159 0 72 -4 94 -25 135 -32 62 -88 118 -148
148 -63 31 -186 36 -257 10z m222 -194 c53 -54 56 -106 10 -195 -68 -132 -68
-234 -2 -369 41 -83 44 -127 12 -175 -60 -90 -178 -90 -270 -1 -60 58 -71 112
-72 337 0 239 7 291 48 352 45 66 104 96 180 91 51 -4 63 -9 94 -40z"/>
<path d="M3683 4770 c-60 -12 -119 -45 -170 -96 -100 -101 -126 -261 -62 -389
99 -198 371 -247 532 -96 142 133 147 351 11 488 -50 50 -100 77 -172 92 -59
12 -79 12 -139 1z m168 -195 c44 -28 71 -82 71 -140 0 -94 -72 -165 -167 -165
-97 0 -167 72 -167 171 0 47 24 101 57 129 53 44 144 46 206 5z"/>
<path d="M4124 4094 c-12 -3 -32 -16 -45 -30 -23 -25 -24 -32 -23 -162 2 -220
47 -334 194 -483 148 -151 276 -213 440 -214 68 0 93 4 125 22 47 25 85 64
111 113 27 51 25 182 -4 277 -59 191 -274 399 -472 457 -53 16 -283 30 -326
20z m348 -211 c48 -23 88 -53 147 -112 92 -92 134 -165 151 -262 20 -114 -11
-147 -122 -129 -100 16 -176 58 -266 148 -109 109 -144 181 -150 305 l-5 90
89 -5 c73 -3 101 -9 156 -35z"/>
<path d="M2992 4036 c-100 -25 -196 -81 -292 -172 -107 -102 -154 -171 -192
-278 -32 -92 -39 -222 -15 -279 39 -91 128 -147 237 -147 176 0 341 89 491
265 108 126 149 248 149 443 0 113 -7 145 -39 169 -22 17 -269 15 -339 -1z
m208 -200 c0 -70 -18 -147 -50 -211 -41 -85 -175 -214 -264 -256 -84 -39 -173
-50 -212 -24 -25 16 -26 20 -22 88 5 108 46 186 151 291 114 115 199 154 330
155 l67 1 0 -44z"/>
<path d="M635 3991 c-43 -26 -155 -146 -199 -212 -63 -95 -88 -185 -93 -329
-8 -203 36 -347 143 -468 147 -167 348 -122 467 105 53 102 67 170 67 325 0
234 -38 327 -199 491 -115 116 -130 123 -186 88z m99 -241 c26 -28 62 -81 79
-118 30 -63 32 -75 35 -198 4 -144 -7 -203 -53 -278 -49 -81 -89 -112 -131
-102 -33 9 -110 115 -129 179 -37 123 -29 298 19 403 24 52 110 164 126 164 4
0 28 -23 54 -50z"/>
<path d="M1580 3558 c-77 -30 -159 -114 -189 -193 -31 -81 -26 -197 10 -269
130 -262 495 -254 617 13 31 67 34 179 8 250 -65 176 -269 267 -446 199z m209
-169 c126 -70 112 -253 -24 -304 -135 -52 -266 84 -214 222 34 90 151 131 238
82z"/>
<path d="M3889 3217 c-74 -31 -122 -69 -159 -125 -133 -201 -27 -468 209 -522
151 -35 312 46 380 190 22 46 26 69 26 140 0 102 -28 173 -95 240 -93 93 -246
126 -361 77z m206 -170 c46 -26 85 -92 85 -146 0 -76 -63 -152 -138 -167 -73
-15 -159 32 -188 103 -61 145 103 288 241 210z"/>
<path d="M2986 2924 c-97 -24 -192 -80 -289 -173 -107 -103 -159 -181 -192
-285 -30 -92 -35 -213 -12 -267 54 -131 186 -176 371 -129 117 30 169 63 293
185 99 98 117 122 152 196 48 102 61 169 61 311 0 109 -8 141 -39 165 -23 18
-269 15 -345 -3z m214 -198 c0 -138 -47 -240 -163 -354 -100 -97 -179 -139
-279 -149 -59 -5 -68 -3 -88 17 -19 19 -22 30 -18 89 6 103 50 186 152 287
117 115 194 151 329 153 l67 1 0 -44z"/>
<path d="M1737 2716 c-103 -28 -183 -111 -218 -229 -29 -97 -69 -137 -165
-166 -39 -11 -90 -34 -112 -51 -124 -90 -165 -256 -97 -395 32 -66 89 -117
175 -158 58 -28 74 -31 155 -31 75 1 100 5 148 27 160 73 436 351 508 513 34
75 32 208 -4 287 -35 78 -78 130 -135 165 -82 50 -164 62 -255 38z m150 -173
c71 -33 117 -146 94 -230 -32 -120 -334 -421 -453 -454 -114 -30 -248 53 -248
155 0 70 48 124 130 146 128 34 222 122 260 242 28 88 53 126 94 144 42 18 81
17 123 -3z"/>
<path d="M410 2458 c-48 -14 -133 -72 -165 -114 -49 -65 -68 -122 -69 -209 -1
-71 3 -88 32 -147 59 -121 168 -191 296 -192 83 0 133 15 198 58 130 86 182
254 126 403 -29 79 -112 162 -191 191 -63 24 -164 28 -227 10z m197 -184 c45
-34 66 -70 71 -123 6 -63 -9 -101 -58 -144 -84 -76 -213 -48 -261 57 -24 53
-24 90 2 143 31 64 87 95 162 90 37 -2 67 -10 84 -23z"/>
<path d="M4545 2377 c-165 -43 -269 -167 -297 -352 -15 -103 -15 -367 0 -470
16 -108 57 -190 128 -255 80 -72 149 -100 251 -101 88 -1 153 23 217 82 72 65
99 129 100 230 1 69 -2 82 -39 153 -30 59 -40 90 -40 125 0 34 11 70 40 132
35 74 40 93 40 154 -2 166 -125 299 -288 310 -34 3 -84 -1 -112 -8z m153 -177
c33 -15 47 -29 62 -62 11 -24 20 -52 20 -62 0 -11 -19 -60 -42 -110 -40 -85
-43 -97 -43 -176 0 -81 2 -91 44 -174 35 -71 42 -94 38 -123 -23 -139 -200
-168 -305 -49 -39 45 -49 82 -63 228 -9 88 -9 149 0 245 17 185 53 251 160
289 50 18 79 17 129 -6z"/>
<path d="M3513 2210 c-215 -45 -331 -287 -231 -486 74 -150 263 -223 423 -163
127 46 216 177 216 315 0 81 -14 127 -60 194 -77 111 -217 168 -348 140z m168
-195 c45 -29 69 -79 69 -143 0 -85 -61 -151 -149 -160 -62 -6 -101 9 -141 54
-49 56 -58 133 -22 199 42 80 161 105 243 50z"/>
<path d="M2159 1700 c-108 -18 -219 -110 -258 -216 -75 -198 54 -419 263 -452
151 -24 290 48 358 185 29 59 33 77 33 148 0 71 -4 88 -33 147 -68 138 -212
212 -363 188z m143 -186 c56 -28 96 -112 84 -176 -16 -87 -78 -138 -167 -138
-62 0 -105 22 -143 73 -30 40 -30 144 0 183 57 76 144 99 226 58z"/>
<path d="M645 1439 c-40 -25 -44 -40 -45 -174 0 -234 43 -338 205 -500 73 -74
119 -111 171 -138 190 -98 382 -89 463 23 45 62 55 102 48 194 -11 153 -70
270 -202 401 -89 90 -176 148 -264 177 -80 26 -341 37 -376 17z m277 -170 c85
-18 147 -56 239 -146 103 -100 148 -184 156 -288 7 -81 -13 -105 -84 -105
-109 0 -201 46 -309 154 -112 113 -154 203 -154 333 l0 63 50 0 c27 0 73 -5
102 -11z"/>
<path d="M3209 1346 c-108 -42 -182 -106 -221 -191 -30 -67 -30 -180 -1 -246
42 -94 127 -162 238 -190 69 -17 119 -69 140 -144 33 -114 83 -179 174 -226
60 -31 171 -37 240 -14 73 24 152 100 193 183 30 61 33 75 33 162 0 83 -4 103
-27 153 -71 152 -330 413 -490 494 -45 23 -68 28 -148 30 -63 2 -107 -2 -131
-11z m261 -208 c97 -69 175 -143 257 -241 84 -101 101 -131 109 -189 16 -113
-62 -218 -161 -218 -70 0 -119 42 -142 120 -24 84 -57 142 -106 187 -53 49
-83 65 -160 88 -69 20 -112 54 -127 101 -23 70 12 143 89 184 28 16 52 20 106
18 66 -3 75 -6 135 -50z"/>
<path d="M2353 659 c-75 -29 -154 -104 -188 -180 -22 -49 -27 -76 -27 -133 0
-139 67 -248 190 -308 59 -29 76 -33 147 -33 71 0 89 4 148 33 217 107 257
393 77 555 -94 85 -231 111 -347 66z m215 -176 c15 -11 37 -35 50 -53 29 -44
31 -131 2 -178 -38 -62 -121 -94 -190 -73 -78 23 -122 81 -122 161 0 70 40
133 102 159 38 16 127 7 158 -16z"/>
</g>
</svg>
