<?xml version="1.0" standalone="no"?>
<!DOCTYPE svg PUBLIC "-//W3C//DTD SVG 20010904//EN"
 "http://www.w3.org/TR/2001/REC-SVG-20010904/DTD/svg10.dtd">
<svg version="1.0" xmlns="http://www.w3.org/2000/svg"
 width="2.5rem" height="2.5rem" viewBox="0 0 512.000000 512.000000"
 preserveAspectRatio="xMidYMid meet">

<g transform="translate(0.000000,512.000000) scale(0.100000,-0.100000)"
fill="#000000" stroke="none">
<path d="M1635 4863 c-82 -17 -193 -62 -258 -103 -268 -170 -349 -501 -241
-991 l6 -26 -89 -7 c-140 -11 -119 65 -213 -746 -44 -382 -78 -704 -76 -715 7
-27 1980 -2017 2011 -2029 16 -6 34 -6 49 0 37 14 1525 1492 1532 1521 4 13 2
35 -4 48 -18 39 -1983 2015 -2012 2022 -13 4 -85 1 -159 -5 -74 -7 -136 -10
-138 -9 -1 2 11 50 27 108 188 680 25 1031 -435 932z m215 -153 c46 -13 95
-63 114 -118 47 -131 19 -410 -67 -685 l-33 -102 -254 -22 c-140 -12 -267 -22
-281 -22 -25 -1 -27 3 -49 102 -31 142 -39 357 -16 461 23 103 66 184 129 244
117 110 332 177 457 142z m1372 -1971 c513 -517 934 -944 936 -948 3 -9 -1344
-1351 -1356 -1351 -4 0 -427 423 -940 940 -859 866 -932 942 -932 972 0 38
137 1219 142 1223 2 1 28 5 59 9 l56 6 32 -89 32 -88 -36 -52 c-44 -67 -58
-120 -52 -197 8 -108 81 -207 183 -250 57 -25 167 -23 225 3 155 70 222 247
151 398 -50 105 -144 166 -262 170 l-65 2 -19 52 c-10 28 -16 54 -12 58 5 5
798 78 893 82 29 1 103 -72 965 -940z m-1674 547 c35 -32 37 -38 37 -95 0 -53
-4 -63 -30 -91 -87 -91 -235 -32 -235 95 0 39 4 41 40 20 38 -22 58 -18 92 15
25 25 29 36 24 60 -5 25 -2 30 14 30 11 0 37 -15 58 -34z"/>
</g>
</svg>
