<?xml version="1.0" standalone="no"?>
<!DOCTYPE svg PUBLIC "-//W3C//DTD SVG 20010904//EN"
 "http://www.w3.org/TR/2001/REC-SVG-20010904/DTD/svg10.dtd">
<svg version="1.0" xmlns="http://www.w3.org/2000/svg"
 width="512.000000pt" height="512.000000pt" viewBox="0 0 512.000000 512.000000"
 preserveAspectRatio="xMidYMid meet">

<g transform="translate(0.000000,512.000000) scale(0.100000,-0.100000)"
fill="#f8f8ff" stroke="none">
<path d="M2530 3710 c-27 -50 166 -190 367 -266 34 -13 139 -44 233 -69 286
-76 427 -150 562 -294 83 -89 135 -171 179 -286 63 -162 89 -307 89 -494 0
-370 -160 -726 -393 -875 -43 -28 -57 -42 -57 -61 0 -62 81 -30 196 78 115
107 205 257 265 440 46 141 63 253 63 422 0 175 -18 289 -70 451 -114 358
-353 567 -775 679 -281 75 -431 140 -552 240 -72 60 -91 66 -107 35z"/>
<path d="M2025 3703 c-37 -37 17 -239 95 -355 108 -162 271 -279 510 -365 155
-56 205 -95 225 -175 20 -81 -67 -217 -232 -359 -233 -201 -435 -311 -1083
-591 -281 -121 -528 -235 -549 -254 -16 -14 -7 -50 15 -58 8 -3 88 28 177 70
89 42 275 125 412 184 700 302 950 449 1186 698 99 104 141 179 147 262 5 72
-9 116 -54 169 -45 53 -99 84 -209 121 -300 101 -502 285 -560 507 -8 31 -15
74 -15 94 0 35 -20 69 -40 69 -5 0 -16 -7 -25 -17z"/>
<path d="M2261 3683 c-31 -60 145 -284 273 -348 58 -29 79 -31 96 -10 19 23 6
41 -60 76 -75 40 -172 141 -220 229 -38 69 -70 88 -89 53z"/>
<path d="M2847 3253 c-4 -3 -7 -17 -7 -30 0 -17 9 -27 36 -38 72 -30 177 -108
222 -167 45 -58 77 -73 88 -43 13 32 -10 71 -79 140 -95 93 -232 167 -260 138z"/>
<path d="M3224 2789 c-4 -7 -6 -44 -5 -84 4 -137 -45 -293 -130 -414 -75 -107
-75 -107 -60 -125 25 -30 48 -17 100 52 107 143 161 296 161 462 0 61 -4 100
-12 108 -15 15 -45 16 -54 1z"/>
<path d="M2855 2008 c-79 -105 -315 -330 -407 -388 -66 -42 -87 -60 -88 -77 0
-12 8 -27 19 -32 37 -20 191 89 351 250 202 203 257 289 190 297 -20 2 -33 -8
-65 -50z"/>
</g>
</svg>
