<?xml version="1.0" standalone="no"?>
<!DOCTYPE svg PUBLIC "-//W3C//DTD SVG 20010904//EN"
 "http://www.w3.org/TR/2001/REC-SVG-20010904/DTD/svg10.dtd">
<svg version="1.0" xmlns="http://www.w3.org/2000/svg"
 width="2.5rem" height="2.5rem" viewBox="0 0 512 512"
 preserveAspectRatio="xMidYMid meet">

<g transform="translate(0.000000,512.000000) scale(0.100000,-0.100000)"
fill="#000000" stroke="none">
<path d="M2020 5110 c-107 -5 -284 -16 -392 -25 -109 -8 -207 -15 -218 -15
-31 0 -70 -44 -70 -78 0 -17 10 -37 24 -51 l25 -23 228 16 c787 56 1498 45
2271 -34 407 -43 475 -59 507 -121 19 -37 22 -98 5 -129 -6 -11 -43 -55 -81
-98 -39 -42 -83 -101 -97 -131 -28 -60 -28 -74 -2 -576 38 -749 38 -1821 0
-2570 -26 -502 -26 -516 2 -576 14 -30 58 -89 97 -131 83 -92 92 -107 93 -157
1 -94 -54 -132 -224 -156 -436 -61 -1120 -105 -1628 -105 -640 0 -1638 78
-1776 139 -50 22 -77 66 -76 122 1 50 10 65 93 157 38 42 81 101 96 130 29 60
29 63 3 577 -39 770 -39 1800 0 2570 26 510 26 516 -2 576 -14 30 -58 89 -97
131 -38 43 -75 87 -81 99 -19 34 -14 105 9 138 30 41 83 59 247 81 150 21 177
28 188 56 18 46 -1 91 -44 106 -23 8 -293 -28 -354 -47 -176 -56 -258 -237
-180 -400 9 -19 54 -78 101 -132 l86 -98 -6 -150 c-4 -82 -11 -240 -17 -350
-41 -811 -39 -1835 5 -2685 8 -157 15 -313 15 -347 l0 -62 -84 -96 c-91 -104
-111 -138 -125 -212 -30 -157 78 -296 259 -332 140 -27 638 -77 1045 -103 252
-16 1132 -16 1390 0 395 25 925 77 1050 104 159 34 258 141 258 282 0 88 -32
151 -133 266 l-83 94 6 156 c4 85 11 245 17 355 17 343 30 884 30 1285 0 401
-13 942 -30 1285 -6 110 -13 270 -17 355 l-6 156 83 94 c101 115 133 178 133
266 -1 143 -99 249 -263 283 -124 25 -586 72 -945 96 -276 19 -1061 27 -1335
15z"/>
<path d="M2110 4709 c-224 -10 -514 -35 -755 -64 -179 -22 -191 -24 -212 -50
-29 -33 -29 -57 0 -91 28 -32 38 -32 215 -9 325 42 853 75 1202 75 349 0 877
-33 1202 -75 177 -23 187 -23 215 9 29 34 29 58 0 91 -21 26 -33 28 -212 50
-529 65 -1122 88 -1655 64z"/>
<path d="M3265 3661 c-44 -19 -549 -383 -604 -435 -50 -46 -73 -105 -70 -180
2 -57 -1 -67 -31 -111 -70 -101 -73 -122 -78 -413 l-4 -263 -153 -115 c-164
-123 -178 -141 -150 -194 18 -34 56 -47 91 -31 13 6 88 58 165 117 84 63 146
103 155 100 8 -3 68 -47 134 -97 123 -95 148 -127 131 -172 -5 -12 -17 -29
-27 -38 -16 -14 -1059 -319 -1091 -319 -26 0 -73 52 -73 81 0 33 397 836 425
859 25 21 76 17 111 -9 86 -63 179 37 101 110 -94 89 -242 84 -334 -13 -19
-20 -116 -203 -242 -456 -201 -403 -211 -425 -211 -480 0 -140 125 -257 254
-237 84 13 1093 307 1133 331 47 27 93 96 103 153 9 54 -6 129 -34 171 -14 21
-93 90 -181 156 l-156 119 3 235 c3 207 5 239 22 270 31 59 31 59 93 37 64
-21 122 -18 174 8 74 39 613 441 635 475 64 97 43 242 -44 311 -66 52 -172 65
-247 30z m145 -141 c24 -13 41 -65 31 -93 -5 -12 -19 -32 -32 -43 -51 -47
-552 -404 -574 -410 -27 -7 -80 18 -89 41 -13 36 -6 82 17 102 12 11 143 109
292 217 280 204 301 215 355 186z"/>
<path d="M1168 638 c-24 -8 -48 -44 -48 -73 0 -8 10 -26 23 -40 22 -26 33 -28
217 -50 773 -94 1569 -97 2328 -10 255 30 265 32 290 60 28 33 28 57 -1 91
-28 32 -28 32 -257 5 -768 -93 -1557 -92 -2346 3 -111 13 -191 19 -206 14z"/>
</g>
</svg>
