<?xml version="1.0" standalone="no"?>
<!DOCTYPE svg PUBLIC "-//W3C//DTD SVG 20010904//EN"
 "http://www.w3.org/TR/2001/REC-SVG-20010904/DTD/svg10.dtd">
<svg version="1.0" xmlns="http://www.w3.org/2000/svg"
 width="72.000000pt" height="72.000000pt" viewBox="0 0 72.000000 72.000000"
 preserveAspectRatio="xMidYMid meet">

<g transform="translate(0.000000,72.000000) scale(0.100000,-0.100000)"
fill="#000000" stroke="none">
<path d="M284 681 c-52 -13 -135 -64 -165 -101 -40 -47 -70 -112 -77 -163 l-5
-42 28 33 c15 18 57 48 94 66 87 44 321 119 321 103 0 -3 -30 -15 -67 -28
-172 -56 -275 -138 -259 -205 22 -87 169 -160 372 -183 74 -8 80 -8 98 13 l18
21 -58 8 c-122 15 -180 29 -227 55 -129 69 -129 156 -2 220 47 23 206 74 212
68 2 -2 -13 -10 -34 -16 -106 -35 -183 -93 -183 -139 0 -30 36 -69 87 -95 41
-21 147 -46 194 -46 42 0 46 6 55 84 15 125 -64 264 -183 322 -58 29 -161 40
-219 25z"/>
<path d="M60 243 c0 -18 58 -99 90 -126 59 -50 110 -70 192 -75 58 -3 89 0
128 14 82 30 84 44 7 44 -143 0 -297 46 -371 111 -25 22 -46 37 -46 32z"/>
</g>
</svg>
