<?xml version="1.0" standalone="no"?>
<!DOCTYPE svg PUBLIC "-//W3C//DTD SVG 20010904//EN"
 "http://www.w3.org/TR/2001/REC-SVG-20010904/DTD/svg10.dtd">
<svg version="1.0" xmlns="http://www.w3.org/2000/svg"
 width="10rem" height="10rem" viewBox="0 0 512.000000 512.000000"
 preserveAspectRatio="xMidYMid meet">

<g transform="translate(0.000000,512.000000) scale(0.100000,-0.100000)"
fill="#000000" stroke="none">
<path d="M2293 4840 c-137 -17 -328 -61 -463 -106 -156 -52 -395 -166 -525
-251 -472 -309 -821 -792 -964 -1333 -206 -782 8 -1599 572 -2187 285 -296
681 -526 1086 -628 435 -109 889 -89 1322 60 134 47 358 156 479 235 655 427
1050 1152 1050 1926 0 174 -12 302 -41 449 -169 847 -790 1521 -1619 1760
-207 60 -337 77 -595 81 -126 1 -263 -2 -302 -6z m497 -305 c673 -81 1249
-486 1549 -1091 316 -635 267 -1391 -128 -1986 l-72 -108 -128 64 c-964 484
-1934 485 -2892 5 l-138 -69 -68 103 c-452 676 -453 1538 -4 2213 327 491 844
804 1441 873 117 13 314 12 440 -4z m186 -3094 c168 -29 366 -81 518 -136 126
-45 402 -167 419 -184 12 -12 -124 -127 -252 -213 -242 -161 -521 -269 -816
-315 -135 -21 -411 -23 -544 -4 -298 42 -599 156 -842 320 -115 77 -253 190
-252 206 1 14 267 135 419 190 157 57 357 109 518 135 176 28 178 28 456 25
204 -2 279 -7 376 -24z"/>
<path d="M2380 3956 c-362 -76 -638 -329 -746 -682 -25 -81 -28 -103 -28 -259
-1 -147 2 -181 22 -253 93 -342 354 -598 702 -689 129 -34 314 -36 443 -4 359
86 626 347 723 706 15 56 19 103 18 240 0 156 -3 178 -28 259 -99 326 -360
581 -681 667 -102 27 -328 35 -425 15z m325 -308 c178 -37 358 -177 438 -340
54 -108 71 -185 70 -308 -1 -177 -63 -325 -190 -453 -323 -326 -866 -229
-1058 188 -45 98 -60 165 -59 275 1 170 58 318 171 439 163 177 392 249 628
199z"/>
</g>
</svg>
